<mxfile host="app.diagrams.net" modified="2023-07-26T17:20:50.680Z" agent="Mozilla/5.0 (Windows NT 10.0; Win64; x64) AppleWebKit/537.36 (KHTML, like Gecko) Chrome/114.0.0.0 Safari/537.36" etag="-IpJtnwqf11YfEe2AhIR" version="21.6.5" type="github">
  <diagram id="C5RBs43oDa-KdzZeNtuy" name="Page-1">
    <mxGraphModel dx="1892" dy="461" grid="1" gridSize="10" guides="1" tooltips="1" connect="1" arrows="1" fold="1" page="1" pageScale="1" pageWidth="827" pageHeight="1169" math="0" shadow="0">
      <root>
        <mxCell id="WIyWlLk6GJQsqaUBKTNV-0" />
        <mxCell id="WIyWlLk6GJQsqaUBKTNV-1" parent="WIyWlLk6GJQsqaUBKTNV-0" />
        <mxCell id="PrX8U-TaPz2yNPLpfvU8-28" value="" style="edgeStyle=orthogonalEdgeStyle;rounded=0;orthogonalLoop=1;jettySize=auto;html=1;strokeWidth=1;fontSize=14;fontStyle=0" parent="WIyWlLk6GJQsqaUBKTNV-1" source="PrX8U-TaPz2yNPLpfvU8-0" target="PrX8U-TaPz2yNPLpfvU8-4" edge="1">
          <mxGeometry relative="1" as="geometry" />
        </mxCell>
        <mxCell id="PrX8U-TaPz2yNPLpfvU8-0" value="activityPartake" style="rounded=0;whiteSpace=wrap;html=1;fillColor=#e1d5e7;strokeColor=#9673a6;strokeWidth=1;fontSize=14;fontStyle=0" parent="WIyWlLk6GJQsqaUBKTNV-1" vertex="1">
          <mxGeometry x="20" y="300" width="120" height="30" as="geometry" />
        </mxCell>
        <mxCell id="PrX8U-TaPz2yNPLpfvU8-18" value="" style="edgeStyle=orthogonalEdgeStyle;rounded=0;orthogonalLoop=1;jettySize=auto;html=1;strokeWidth=1;fontSize=14;fontStyle=0" parent="WIyWlLk6GJQsqaUBKTNV-1" source="PrX8U-TaPz2yNPLpfvU8-1" target="PrX8U-TaPz2yNPLpfvU8-0" edge="1">
          <mxGeometry relative="1" as="geometry" />
        </mxCell>
        <mxCell id="PrX8U-TaPz2yNPLpfvU8-1" value="Actor" style="shape=umlActor;verticalLabelPosition=bottom;verticalAlign=top;html=1;outlineConnect=0;strokeWidth=1;fontSize=14;fontStyle=0" parent="WIyWlLk6GJQsqaUBKTNV-1" vertex="1">
          <mxGeometry x="-140" y="285" width="30" height="60" as="geometry" />
        </mxCell>
        <mxCell id="PrX8U-TaPz2yNPLpfvU8-6" value="" style="edgeStyle=orthogonalEdgeStyle;rounded=0;orthogonalLoop=1;jettySize=auto;html=1;strokeWidth=1;fontSize=14;fontStyle=0" parent="WIyWlLk6GJQsqaUBKTNV-1" source="PrX8U-TaPz2yNPLpfvU8-4" target="PrX8U-TaPz2yNPLpfvU8-5" edge="1">
          <mxGeometry relative="1" as="geometry" />
        </mxCell>
        <mxCell id="PrX8U-TaPz2yNPLpfvU8-4" value="doPartake(req)" style="rounded=1;whiteSpace=wrap;html=1;fillColor=#e1d5e7;strokeColor=#9673a6;strokeWidth=1;fontSize=14;fontStyle=0" parent="WIyWlLk6GJQsqaUBKTNV-1" vertex="1">
          <mxGeometry x="190" y="295" width="120" height="40" as="geometry" />
        </mxCell>
        <mxCell id="PrX8U-TaPz2yNPLpfvU8-8" value="" style="edgeStyle=orthogonalEdgeStyle;rounded=0;orthogonalLoop=1;jettySize=auto;html=1;strokeWidth=1;fontSize=14;fontStyle=0" parent="WIyWlLk6GJQsqaUBKTNV-1" source="PrX8U-TaPz2yNPLpfvU8-5" target="PrX8U-TaPz2yNPLpfvU8-7" edge="1">
          <mxGeometry relative="1" as="geometry" />
        </mxCell>
        <mxCell id="PrX8U-TaPz2yNPLpfvU8-5" value="查询活动账单(从activity和count表),&lt;br style=&quot;font-size: 14px;&quot;&gt;校验,&lt;br style=&quot;font-size: 14px;&quot;&gt;扣减库存" style="rounded=1;whiteSpace=wrap;html=1;strokeWidth=1;fontSize=14;fontStyle=0" parent="WIyWlLk6GJQsqaUBKTNV-1" vertex="1">
          <mxGeometry x="355" y="285" width="230" height="60" as="geometry" />
        </mxCell>
        <mxCell id="PrX8U-TaPz2yNPLpfvU8-10" value="" style="edgeStyle=orthogonalEdgeStyle;rounded=0;orthogonalLoop=1;jettySize=auto;html=1;strokeWidth=1;fontSize=14;fontStyle=0" parent="WIyWlLk6GJQsqaUBKTNV-1" source="PrX8U-TaPz2yNPLpfvU8-7" target="PrX8U-TaPz2yNPLpfvU8-9" edge="1">
          <mxGeometry relative="1" as="geometry" />
        </mxCell>
        <mxCell id="PrX8U-TaPz2yNPLpfvU8-7" value="用户领取活动&lt;br style=&quot;font-size: 14px;&quot;&gt;grabActivity()" style="rounded=1;whiteSpace=wrap;html=1;fillColor=#e1d5e7;strokeColor=#9673a6;strokeWidth=1;fontSize=14;fontStyle=0" parent="WIyWlLk6GJQsqaUBKTNV-1" vertex="1">
          <mxGeometry x="410" y="370" width="120" height="40" as="geometry" />
        </mxCell>
        <mxCell id="PrX8U-TaPz2yNPLpfvU8-14" value="" style="edgeStyle=orthogonalEdgeStyle;rounded=0;orthogonalLoop=1;jettySize=auto;html=1;strokeWidth=1;fontSize=14;fontStyle=0" parent="WIyWlLk6GJQsqaUBKTNV-1" source="PrX8U-TaPz2yNPLpfvU8-9" target="PrX8U-TaPz2yNPLpfvU8-13" edge="1">
          <mxGeometry relative="1" as="geometry" />
        </mxCell>
        <mxCell id="PrX8U-TaPz2yNPLpfvU8-20" value="" style="edgeStyle=orthogonalEdgeStyle;rounded=0;orthogonalLoop=1;jettySize=auto;html=1;strokeWidth=1;fontSize=14;fontStyle=0" parent="WIyWlLk6GJQsqaUBKTNV-1" source="PrX8U-TaPz2yNPLpfvU8-9" target="PrX8U-TaPz2yNPLpfvU8-19" edge="1">
          <mxGeometry relative="1" as="geometry" />
        </mxCell>
        <mxCell id="PrX8U-TaPz2yNPLpfvU8-9" value="扣减个人已参与次数" style="rounded=1;whiteSpace=wrap;html=1;strokeWidth=1;fontSize=14;fontStyle=0" parent="WIyWlLk6GJQsqaUBKTNV-1" vertex="1">
          <mxGeometry x="360" y="440" width="220" height="30" as="geometry" />
        </mxCell>
        <mxCell id="PrX8U-TaPz2yNPLpfvU8-22" value="" style="edgeStyle=orthogonalEdgeStyle;rounded=0;orthogonalLoop=1;jettySize=auto;html=1;strokeWidth=1;fontSize=14;fontStyle=0" parent="WIyWlLk6GJQsqaUBKTNV-1" source="PrX8U-TaPz2yNPLpfvU8-13" target="PrX8U-TaPz2yNPLpfvU8-21" edge="1">
          <mxGeometry relative="1" as="geometry" />
        </mxCell>
        <mxCell id="PrX8U-TaPz2yNPLpfvU8-13" value="插入领取活动信息" style="rounded=1;whiteSpace=wrap;html=1;strokeWidth=1;fontSize=14;fontStyle=0" parent="WIyWlLk6GJQsqaUBKTNV-1" vertex="1">
          <mxGeometry x="360" y="510" width="220" height="30" as="geometry" />
        </mxCell>
        <mxCell id="PrX8U-TaPz2yNPLpfvU8-15" value="userTakeActivityRepository" style="rounded=0;whiteSpace=wrap;html=1;fillColor=#d5e8d4;strokeColor=#82b366;strokeWidth=1;fontSize=14;fontStyle=0" parent="WIyWlLk6GJQsqaUBKTNV-1" vertex="1">
          <mxGeometry x="155" y="474" width="190" height="30" as="geometry" />
        </mxCell>
        <mxCell id="PrX8U-TaPz2yNPLpfvU8-25" value="" style="edgeStyle=orthogonalEdgeStyle;rounded=0;orthogonalLoop=1;jettySize=auto;html=1;strokeWidth=1;fontSize=14;fontStyle=0" parent="WIyWlLk6GJQsqaUBKTNV-1" source="PrX8U-TaPz2yNPLpfvU8-19" target="PrX8U-TaPz2yNPLpfvU8-24" edge="1">
          <mxGeometry relative="1" as="geometry" />
        </mxCell>
        <mxCell id="PrX8U-TaPz2yNPLpfvU8-19" value="subtractionLeftCount(...)" style="rounded=1;whiteSpace=wrap;html=1;fillColor=#d5e8d4;strokeColor=#82b366;strokeWidth=1;fontSize=14;fontStyle=0" parent="WIyWlLk6GJQsqaUBKTNV-1" vertex="1">
          <mxGeometry x="170" y="440" width="160" height="30" as="geometry" />
        </mxCell>
        <mxCell id="PrX8U-TaPz2yNPLpfvU8-27" value="" style="edgeStyle=orthogonalEdgeStyle;rounded=0;orthogonalLoop=1;jettySize=auto;html=1;strokeWidth=1;fontSize=14;fontStyle=0" parent="WIyWlLk6GJQsqaUBKTNV-1" source="PrX8U-TaPz2yNPLpfvU8-21" target="PrX8U-TaPz2yNPLpfvU8-26" edge="1">
          <mxGeometry relative="1" as="geometry" />
        </mxCell>
        <mxCell id="PrX8U-TaPz2yNPLpfvU8-21" value="takeActivity(...)" style="rounded=1;whiteSpace=wrap;html=1;fillColor=#d5e8d4;strokeColor=#82b366;strokeWidth=1;fontSize=14;fontStyle=0" parent="WIyWlLk6GJQsqaUBKTNV-1" vertex="1">
          <mxGeometry x="190" y="510" width="130" height="30" as="geometry" />
        </mxCell>
        <mxCell id="PrX8U-TaPz2yNPLpfvU8-38" value="" style="edgeStyle=orthogonalEdgeStyle;rounded=0;orthogonalLoop=1;jettySize=auto;html=1;strokeWidth=1;fontSize=14;fontStyle=0" parent="WIyWlLk6GJQsqaUBKTNV-1" source="PrX8U-TaPz2yNPLpfvU8-24" target="PrX8U-TaPz2yNPLpfvU8-37" edge="1">
          <mxGeometry relative="1" as="geometry" />
        </mxCell>
        <mxCell id="PrX8U-TaPz2yNPLpfvU8-24" value="serTakeActivityCountDao.&lt;br style=&quot;font-size: 14px;&quot;&gt;insert(userTakeActivityCount)" style="rounded=1;whiteSpace=wrap;html=1;fillColor=#ffe6cc;strokeColor=#d79b00;strokeWidth=1;fontSize=14;fontStyle=0" parent="WIyWlLk6GJQsqaUBKTNV-1" vertex="1">
          <mxGeometry x="-100" y="440" width="240" height="30" as="geometry" />
        </mxCell>
        <mxCell id="PrX8U-TaPz2yNPLpfvU8-39" value="" style="edgeStyle=orthogonalEdgeStyle;rounded=0;orthogonalLoop=1;jettySize=auto;html=1;strokeWidth=1;fontSize=14;fontStyle=0" parent="WIyWlLk6GJQsqaUBKTNV-1" source="PrX8U-TaPz2yNPLpfvU8-26" target="PrX8U-TaPz2yNPLpfvU8-37" edge="1">
          <mxGeometry relative="1" as="geometry" />
        </mxCell>
        <mxCell id="PrX8U-TaPz2yNPLpfvU8-26" value="userTakeActivityDao.&lt;br&gt;insert(userTakeActivity)" style="rounded=1;whiteSpace=wrap;html=1;fillColor=#ffe6cc;strokeColor=#d79b00;strokeWidth=1;fontSize=14;fontStyle=0" parent="WIyWlLk6GJQsqaUBKTNV-1" vertex="1">
          <mxGeometry x="-100" y="510" width="240" height="30" as="geometry" />
        </mxCell>
        <mxCell id="PrX8U-TaPz2yNPLpfvU8-35" value="" style="edgeStyle=orthogonalEdgeStyle;rounded=0;orthogonalLoop=1;jettySize=auto;html=1;strokeWidth=1;fontSize=14;fontStyle=0" parent="WIyWlLk6GJQsqaUBKTNV-1" source="PrX8U-TaPz2yNPLpfvU8-34" target="PrX8U-TaPz2yNPLpfvU8-4" edge="1">
          <mxGeometry relative="1" as="geometry" />
        </mxCell>
        <mxCell id="PrX8U-TaPz2yNPLpfvU8-34" value="req =new PartakeReq(&quot;Uhdgkw766120d&quot;, 100001L);&amp;nbsp;" style="text;html=1;align=center;verticalAlign=middle;whiteSpace=wrap;rounded=0;strokeWidth=1;fontSize=14;fontStyle=0" parent="WIyWlLk6GJQsqaUBKTNV-1" vertex="1">
          <mxGeometry x="100" y="230" width="300" height="30" as="geometry" />
        </mxCell>
        <mxCell id="PrX8U-TaPz2yNPLpfvU8-37" value="DataBase" style="shape=cylinder3;whiteSpace=wrap;html=1;boundedLbl=1;backgroundOutline=1;size=15;strokeWidth=1;fontSize=14;fontStyle=0" parent="WIyWlLk6GJQsqaUBKTNV-1" vertex="1">
          <mxGeometry x="-210" y="449" width="70" height="80" as="geometry" />
        </mxCell>
        <mxCell id="PrX8U-TaPz2yNPLpfvU8-40" value="" style="endArrow=none;html=1;rounded=0;dashed=1;strokeWidth=2;" parent="WIyWlLk6GJQsqaUBKTNV-1" edge="1">
          <mxGeometry width="50" height="50" relative="1" as="geometry">
            <mxPoint x="570" y="430" as="sourcePoint" />
            <mxPoint x="670" y="430" as="targetPoint" />
          </mxGeometry>
        </mxCell>
        <mxCell id="PrX8U-TaPz2yNPLpfvU8-41" value="" style="endArrow=none;html=1;rounded=0;dashed=1;strokeWidth=2;" parent="WIyWlLk6GJQsqaUBKTNV-1" edge="1">
          <mxGeometry width="50" height="50" relative="1" as="geometry">
            <mxPoint x="570" y="550" as="sourcePoint" />
            <mxPoint x="670" y="550" as="targetPoint" />
          </mxGeometry>
        </mxCell>
        <mxCell id="PrX8U-TaPz2yNPLpfvU8-42" value="" style="endArrow=classic;startArrow=classic;html=1;rounded=0;dashed=1;" parent="WIyWlLk6GJQsqaUBKTNV-1" edge="1">
          <mxGeometry width="50" height="50" relative="1" as="geometry">
            <mxPoint x="600" y="550" as="sourcePoint" />
            <mxPoint x="600" y="430" as="targetPoint" />
          </mxGeometry>
        </mxCell>
        <mxCell id="PrX8U-TaPz2yNPLpfvU8-43" value="路由组件事务" style="text;html=1;strokeColor=none;fillColor=none;align=center;verticalAlign=middle;whiteSpace=wrap;rounded=0;fontSize=14;" parent="WIyWlLk6GJQsqaUBKTNV-1" vertex="1">
          <mxGeometry x="610" y="454" width="60" height="70" as="geometry" />
        </mxCell>
      </root>
    </mxGraphModel>
  </diagram>
</mxfile>
